<svg xmlns="http://www.w3.org/2000/svg" version="1.1" xmlns:xlink="http://www.w3.org/1999/xlink" xmlns:svgjs="http://svgjs.com/svgjs" width="375" height="812" preserveAspectRatio="none" viewBox="0 0 375 812"><g mask="url(&quot;#SvgjsMask2424&quot;)" fill="none"><rect width="375" height="812" x="0" y="0" fill="url(#SvgjsLinearGradient2425)"></rect><path d="M375 0L273.58 0L375 313.66z" fill="rgba(255, 255, 255, .1)"></path><path d="M273.58 0L375 313.66L375 427.63L163.77999999999997 0z" fill="rgba(255, 255, 255, .075)"></path><path d="M163.78 0L375 427.63L375 656L95.87 0z" fill="rgba(255, 255, 255, .05)"></path><path d="M95.87 0L375 656L375 747.0699999999999L55.84 0z" fill="rgba(255, 255, 255, .025)"></path><path d="M0 812L176.24 812L0 785.44z" fill="rgba(0, 0, 0, .1)"></path><path d="M0 785.44L176.24 812L275.21000000000004 812L0 416.51000000000005z" fill="rgba(0, 0, 0, .075)"></path><path d="M0 416.51L275.21000000000004 812L320.46000000000004 812L0 169.76z" fill="rgba(0, 0, 0, .05)"></path><path d="M0 169.76L320.46000000000004 812L332.49 812L0 158.42999999999998z" fill="rgba(0, 0, 0, .025)"></path></g><defs><mask id="SvgjsMask2424"><rect width="375" height="812" fill="#ffffff"></rect></mask><linearGradient x1="0%" y1="50%" x2="100%" y2="50%" gradientUnits="userSpaceOnUse" id="SvgjsLinearGradient2425"><stop stop-color="rgba(24, 40, 81, 1)" offset="1"></stop><stop stop-color="rgba(81, 81, 81, 1)" offset="1"></stop></linearGradient></defs></svg>